<mxfile host="" modified="2020-07-03T09:34:01.352Z" agent="5.0 (Windows NT 10.0; Win64; x64) AppleWebKit/537.36 (KHTML, like Gecko) Code/1.46.1 Chrome/78.0.3904.130 Electron/7.3.1 Safari/537.36" etag="zuAbwRGCN7iRuv7IejfS" version="13.1.3">
    <diagram id="6hGFLwfOUW9BJ-s0fimq" name="Page-1">
        <mxGraphModel dx="2487" dy="627" grid="1" gridSize="10" guides="1" tooltips="1" connect="1" arrows="1" fold="1" page="1" pageScale="1" pageWidth="1169" pageHeight="827" math="0" shadow="0">
            <root>
                <mxCell id="0"/>
                <mxCell id="1" parent="0"/>
                <mxCell id="2" value="OpenOLS Core API" style="rounded=1;whiteSpace=wrap;html=1;" vertex="1" parent="1">
                    <mxGeometry x="436" y="62" width="120" height="60" as="geometry"/>
                </mxCell>
                <mxCell id="3" value="Live Server Interface&lt;br&gt;NginX" style="rounded=1;whiteSpace=wrap;html=1;" vertex="1" parent="1">
                    <mxGeometry x="172" y="262" width="120" height="60" as="geometry"/>
                </mxCell>
                <mxCell id="4" value="Client Side Interface" style="rounded=1;whiteSpace=wrap;html=1;" vertex="1" parent="1">
                    <mxGeometry x="672" y="262" width="120" height="60" as="geometry"/>
                </mxCell>
                <mxCell id="8" value="" style="endArrow=classic;html=1;exitX=0;exitY=0.5;exitDx=0;exitDy=0;entryX=1;entryY=0.5;entryDx=0;entryDy=0;" edge="1" parent="1" source="4" target="3">
                    <mxGeometry width="50" height="50" relative="1" as="geometry">
                        <mxPoint x="472" y="332" as="sourcePoint"/>
                        <mxPoint x="522" y="282" as="targetPoint"/>
                    </mxGeometry>
                </mxCell>
                <mxCell id="19" value="1 Client Send a class_id and user_id and token" style="edgeLabel;html=1;align=center;verticalAlign=middle;resizable=0;points=[];" vertex="1" connectable="0" parent="8">
                    <mxGeometry x="-0.1526" y="-1" relative="1" as="geometry">
                        <mxPoint as="offset"/>
                    </mxGeometry>
                </mxCell>
                <mxCell id="10" value="SRS Servers" style="rounded=1;whiteSpace=wrap;html=1;" vertex="1" parent="1">
                    <mxGeometry x="82" y="402" width="120" height="60" as="geometry"/>
                </mxCell>
                <mxCell id="11" value="SRS Servers" style="rounded=1;whiteSpace=wrap;html=1;" vertex="1" parent="1">
                    <mxGeometry x="282" y="402" width="120" height="60" as="geometry"/>
                </mxCell>
                <mxCell id="12" value="" style="endArrow=classic;html=1;exitX=0.5;exitY=0;exitDx=0;exitDy=0;" edge="1" parent="1" source="11">
                    <mxGeometry width="50" height="50" relative="1" as="geometry">
                        <mxPoint x="182" y="372" as="sourcePoint"/>
                        <mxPoint x="232" y="322" as="targetPoint"/>
                    </mxGeometry>
                </mxCell>
                <mxCell id="14" value="HTTP Flv Stream" style="edgeLabel;html=1;align=center;verticalAlign=middle;resizable=0;points=[];" vertex="1" connectable="0" parent="12">
                    <mxGeometry x="-0.3073" y="-4" relative="1" as="geometry">
                        <mxPoint as="offset"/>
                    </mxGeometry>
                </mxCell>
                <mxCell id="13" value="" style="endArrow=classic;html=1;exitX=0.5;exitY=0;exitDx=0;exitDy=0;entryX=0.5;entryY=1;entryDx=0;entryDy=0;" edge="1" parent="1" source="10" target="3">
                    <mxGeometry width="50" height="50" relative="1" as="geometry">
                        <mxPoint x="212" y="382" as="sourcePoint"/>
                        <mxPoint x="262" y="332" as="targetPoint"/>
                    </mxGeometry>
                </mxCell>
                <mxCell id="15" value="HTTP Flv Stream" style="edgeLabel;html=1;align=center;verticalAlign=middle;resizable=0;points=[];" vertex="1" connectable="0" parent="13">
                    <mxGeometry x="-0.2652" y="-2" relative="1" as="geometry">
                        <mxPoint as="offset"/>
                    </mxGeometry>
                </mxCell>
                <mxCell id="16" value="" style="shape=flexArrow;endArrow=classic;startArrow=classic;html=1;exitX=1;exitY=0.5;exitDx=0;exitDy=0;entryX=0;entryY=0.5;entryDx=0;entryDy=0;" edge="1" parent="1" source="10" target="11">
                    <mxGeometry width="50" height="50" relative="1" as="geometry">
                        <mxPoint x="432" y="332" as="sourcePoint"/>
                        <mxPoint x="482" y="282" as="targetPoint"/>
                    </mxGeometry>
                </mxCell>
                <mxCell id="17" value="Share Source Links" style="edgeLabel;html=1;align=center;verticalAlign=middle;resizable=0;points=[];" vertex="1" connectable="0" parent="16">
                    <mxGeometry x="0.325" y="-5" relative="1" as="geometry">
                        <mxPoint as="offset"/>
                    </mxGeometry>
                </mxCell>
                <mxCell id="18" value="" style="endArrow=classic;html=1;exitX=0.75;exitY=0;exitDx=0;exitDy=0;entryX=0.5;entryY=1;entryDx=0;entryDy=0;" edge="1" parent="1" source="3" target="2">
                    <mxGeometry width="50" height="50" relative="1" as="geometry">
                        <mxPoint x="432" y="332" as="sourcePoint"/>
                        <mxPoint x="482" y="282" as="targetPoint"/>
                    </mxGeometry>
                </mxCell>
                <mxCell id="20" value="2 NginX OpenRestry Check the Core API to determine whether to give client the stream" style="edgeLabel;html=1;align=center;verticalAlign=middle;resizable=0;points=[];" vertex="1" connectable="0" parent="18">
                    <mxGeometry x="-0.2138" relative="1" as="geometry">
                        <mxPoint as="offset"/>
                    </mxGeometry>
                </mxCell>
                <mxCell id="21" value="" style="endArrow=classic;html=1;exitX=0.25;exitY=1;exitDx=0;exitDy=0;entryX=0.25;entryY=0;entryDx=0;entryDy=0;" edge="1" parent="1" source="2" target="3">
                    <mxGeometry width="50" height="50" relative="1" as="geometry">
                        <mxPoint x="292" y="162" as="sourcePoint"/>
                        <mxPoint x="342" y="112" as="targetPoint"/>
                    </mxGeometry>
                </mxCell>
                <mxCell id="22" value="3 Core API returns the authenlaton results" style="edgeLabel;html=1;align=center;verticalAlign=middle;resizable=0;points=[];" vertex="1" connectable="0" parent="21">
                    <mxGeometry x="-0.4673" y="-1" relative="1" as="geometry">
                        <mxPoint y="-1" as="offset"/>
                    </mxGeometry>
                </mxCell>
                <mxCell id="23" value="" style="endArrow=classic;html=1;exitX=1;exitY=0.75;exitDx=0;exitDy=0;entryX=0;entryY=0.75;entryDx=0;entryDy=0;" edge="1" parent="1" source="3" target="4">
                    <mxGeometry width="50" height="50" relative="1" as="geometry">
                        <mxPoint x="432" y="332" as="sourcePoint"/>
                        <mxPoint x="482" y="282" as="targetPoint"/>
                    </mxGeometry>
                </mxCell>
                <mxCell id="24" value="4 NginX returns the requested vhost" style="edgeLabel;html=1;align=center;verticalAlign=middle;resizable=0;points=[];" vertex="1" connectable="0" parent="23">
                    <mxGeometry x="-0.2421" relative="1" as="geometry">
                        <mxPoint as="offset"/>
                    </mxGeometry>
                </mxCell>
                <mxCell id="25" value="" style="endArrow=classic;startArrow=classic;html=1;exitX=0.25;exitY=0;exitDx=0;exitDy=0;entryX=0.75;entryY=1;entryDx=0;entryDy=0;" edge="1" parent="1" source="4" target="2">
                    <mxGeometry width="50" height="50" relative="1" as="geometry">
                        <mxPoint x="432" y="332" as="sourcePoint"/>
                        <mxPoint x="482" y="282" as="targetPoint"/>
                    </mxGeometry>
                </mxCell>
                <mxCell id="26" value="Client Send the statistics to help OpenOLS to deliver better service" style="edgeLabel;html=1;align=center;verticalAlign=middle;resizable=0;points=[];" vertex="1" connectable="0" parent="25">
                    <mxGeometry x="0.3861" relative="1" as="geometry">
                        <mxPoint x="72.09" y="57.11" as="offset"/>
                    </mxGeometry>
                </mxCell>
                <mxCell id="27" value="Administrator Interface" style="rounded=1;whiteSpace=wrap;html=1;" vertex="1" parent="1">
                    <mxGeometry x="672" y="402" width="120" height="60" as="geometry"/>
                </mxCell>
                <mxCell id="28" value="" style="endArrow=classic;html=1;exitX=0.5;exitY=0;exitDx=0;exitDy=0;entryX=0.5;entryY=1;entryDx=0;entryDy=0;" edge="1" parent="1" source="27" target="2">
                    <mxGeometry width="50" height="50" relative="1" as="geometry">
                        <mxPoint x="432" y="332" as="sourcePoint"/>
                        <mxPoint x="482" y="282" as="targetPoint"/>
                    </mxGeometry>
                </mxCell>
                <mxCell id="29" value="*1 Request add a vhost or kill a vhost" style="edgeLabel;html=1;align=center;verticalAlign=middle;resizable=0;points=[];" vertex="1" connectable="0" parent="28">
                    <mxGeometry x="-0.6286" y="2" relative="1" as="geometry">
                        <mxPoint as="offset"/>
                    </mxGeometry>
                </mxCell>
                <mxCell id="31" value="" style="endArrow=classic;html=1;entryX=0.2;entryY=-0.017;entryDx=0;entryDy=0;entryPerimeter=0;exitX=0.25;exitY=1;exitDx=0;exitDy=0;" edge="1" parent="1" source="2" target="27">
                    <mxGeometry width="50" height="50" relative="1" as="geometry">
                        <mxPoint x="512" y="302" as="sourcePoint"/>
                        <mxPoint x="562" y="252" as="targetPoint"/>
                    </mxGeometry>
                </mxCell>
                <mxCell id="32" value="*4 O2LS Core API respon to the admin" style="edgeLabel;html=1;align=center;verticalAlign=middle;resizable=0;points=[];" vertex="1" connectable="0" parent="31">
                    <mxGeometry x="0.7763" relative="1" as="geometry">
                        <mxPoint as="offset"/>
                    </mxGeometry>
                </mxCell>
                <mxCell id="33" value="" style="endArrow=classic;html=1;exitX=0.75;exitY=1;exitDx=0;exitDy=0;entryX=1;entryY=0.25;entryDx=0;entryDy=0;" edge="1" parent="1" source="2" target="3">
                    <mxGeometry width="50" height="50" relative="1" as="geometry">
                        <mxPoint x="602" y="448" as="sourcePoint"/>
                        <mxPoint x="592" y="492" as="targetPoint"/>
                    </mxGeometry>
                </mxCell>
                <mxCell id="34" value="*2 O2LS Core API request to setup&amp;nbsp; or destroy a vhost" style="edgeLabel;html=1;align=center;verticalAlign=middle;resizable=0;points=[];" vertex="1" connectable="0" parent="33">
                    <mxGeometry x="0.6186" y="-3" relative="1" as="geometry">
                        <mxPoint as="offset"/>
                    </mxGeometry>
                </mxCell>
                <mxCell id="38" value="" style="endArrow=classic;html=1;exitX=0.5;exitY=0;exitDx=0;exitDy=0;" edge="1" parent="1" source="3">
                    <mxGeometry width="50" height="50" relative="1" as="geometry">
                        <mxPoint x="432" y="402" as="sourcePoint"/>
                        <mxPoint x="432" y="92" as="targetPoint"/>
                    </mxGeometry>
                </mxCell>
                <mxCell id="39" value="*3 NginX returns the status" style="edgeLabel;html=1;align=center;verticalAlign=middle;resizable=0;points=[];" vertex="1" connectable="0" parent="38">
                    <mxGeometry x="0.5083" relative="1" as="geometry">
                        <mxPoint as="offset"/>
                    </mxGeometry>
                </mxCell>
                <mxCell id="40" value="" style="endArrow=classic;html=1;entryX=0;entryY=0.25;entryDx=0;entryDy=0;" edge="1" parent="1" target="2">
                    <mxGeometry width="50" height="50" relative="1" as="geometry">
                        <mxPoint x="172" y="292" as="sourcePoint"/>
                        <mxPoint x="222" y="242" as="targetPoint"/>
                        <Array as="points">
                            <mxPoint x="112" y="92"/>
                        </Array>
                    </mxGeometry>
                </mxCell>
                <mxCell id="41" value="NginX Gives O2LS Core API server loads" style="edgeLabel;html=1;align=center;verticalAlign=middle;resizable=0;points=[];" vertex="1" connectable="0" parent="40">
                    <mxGeometry x="-0.4255" y="-1" relative="1" as="geometry">
                        <mxPoint as="offset"/>
                    </mxGeometry>
                </mxCell>
                <mxCell id="44" value="" style="endArrow=classic;html=1;entryX=0;entryY=0.75;entryDx=0;entryDy=0;" edge="1" parent="1" target="27">
                    <mxGeometry width="50" height="50" relative="1" as="geometry">
                        <mxPoint x="292" y="317" as="sourcePoint"/>
                        <mxPoint x="342" y="267" as="targetPoint"/>
                    </mxGeometry>
                </mxCell>
                <mxCell id="45" value="Admin directly request the statics from the live server" style="edgeLabel;html=1;align=center;verticalAlign=middle;resizable=0;points=[];" vertex="1" connectable="0" parent="44">
                    <mxGeometry x="-0.1621" y="-4" relative="1" as="geometry">
                        <mxPoint x="72.34" y="36.84" as="offset"/>
                    </mxGeometry>
                </mxCell>
                <mxCell id="46" value="Teacher Side Interface" style="rounded=1;whiteSpace=wrap;html=1;" vertex="1" parent="1">
                    <mxGeometry x="525" y="630" width="120" height="60" as="geometry"/>
                </mxCell>
                <mxCell id="48" value="" style="endArrow=classic;html=1;exitX=0;exitY=0.5;exitDx=0;exitDy=0;" edge="1" parent="1" source="46">
                    <mxGeometry width="50" height="50" relative="1" as="geometry">
                        <mxPoint x="430" y="500" as="sourcePoint"/>
                        <mxPoint x="170" y="290" as="targetPoint"/>
                        <Array as="points">
                            <mxPoint x="40" y="660"/>
                            <mxPoint x="40" y="290"/>
                        </Array>
                    </mxGeometry>
                </mxCell>
                <mxCell id="53" value="Teacher Side Push Stream to NginX Inter Face" style="edgeLabel;html=1;align=center;verticalAlign=middle;resizable=0;points=[];" vertex="1" connectable="0" parent="48">
                    <mxGeometry x="-0.0152" y="-31" relative="1" as="geometry">
                        <mxPoint x="-33" y="-31" as="offset"/>
                    </mxGeometry>
                </mxCell>
                <mxCell id="50" value="" style="endArrow=classic;html=1;exitX=1;exitY=0.5;exitDx=0;exitDy=0;" edge="1" parent="1" source="46">
                    <mxGeometry width="50" height="50" relative="1" as="geometry">
                        <mxPoint x="550" y="370" as="sourcePoint"/>
                        <mxPoint x="540" y="60" as="targetPoint"/>
                        <Array as="points">
                            <mxPoint x="860" y="660"/>
                            <mxPoint x="860" y="50"/>
                            <mxPoint x="540" y="50"/>
                        </Array>
                    </mxGeometry>
                </mxCell>
                <mxCell id="52" value="Teacher Side Request the Course List" style="edgeLabel;html=1;align=center;verticalAlign=middle;resizable=0;points=[];" vertex="1" connectable="0" parent="50">
                    <mxGeometry x="-0.6304" y="33" relative="1" as="geometry">
                        <mxPoint x="1" as="offset"/>
                    </mxGeometry>
                </mxCell>
                <mxCell id="54" value="" style="endArrow=classic;html=1;exitX=0.25;exitY=1;exitDx=0;exitDy=0;entryX=0.25;entryY=0;entryDx=0;entryDy=0;" edge="1" parent="1" source="3" target="10">
                    <mxGeometry width="50" height="50" relative="1" as="geometry">
                        <mxPoint x="560" y="430" as="sourcePoint"/>
                        <mxPoint x="610" y="380" as="targetPoint"/>
                    </mxGeometry>
                </mxCell>
                <mxCell id="55" value="NginX pushes the stream from teachers" style="edgeLabel;html=1;align=center;verticalAlign=middle;resizable=0;points=[];" vertex="1" connectable="0" parent="54">
                    <mxGeometry x="-0.3904" y="-1" relative="1" as="geometry">
                        <mxPoint as="offset"/>
                    </mxGeometry>
                </mxCell>
                <mxCell id="56" value="" style="endArrow=classic;html=1;exitX=0.75;exitY=1;exitDx=0;exitDy=0;entryX=0.75;entryY=0;entryDx=0;entryDy=0;" edge="1" parent="1" source="3" target="11">
                    <mxGeometry width="50" height="50" relative="1" as="geometry">
                        <mxPoint x="560" y="430" as="sourcePoint"/>
                        <mxPoint x="610" y="380" as="targetPoint"/>
                    </mxGeometry>
                </mxCell>
                <mxCell id="57" value="Tips From Gemini K. Z. :&lt;br&gt;If a case need more than one live stream server to meet the bandwitdth requirements. For Teachers and Students,&lt;br&gt;alll procedures stays the same when it is a sigle server deployment . Just give OpenOLS Core API multiple servers,&lt;br&gt;OpenOLS Core API will take care of it . But for admins , it needs to add multiple servers , and mannual allocate cour-&lt;br&gt;se_ids to a particular server . A sigle class for more than a server is not supported yet .&amp;nbsp;" style="shape=callout;whiteSpace=wrap;html=1;perimeter=calloutPerimeter;position2=0.89;base=67;size=20;position=0.79;" vertex="1" parent="1">
                    <mxGeometry x="82" y="700" width="698" height="110" as="geometry"/>
                </mxCell>
            </root>
        </mxGraphModel>
    </diagram>
</mxfile>